<svg width="55" height="51" viewBox="0 0 55 51" fill="none" xmlns="http://www.w3.org/2000/svg">
<path d="M48.718 32.6263L45.6846 34.6291C44.8432 35.1897 44.3153 36.1039 44.2506 37.113L44.0328 40.7413C43.8416 43.8564 39.7731 44.9055 38.1151 42.2654L37.2521 40.8826C37.1336 40.6955 37.0802 40.4705 37.102 40.2458L38.3947 27.3566C38.4515 26.8284 38.9063 26.433 39.4323 26.4562L47.0697 26.7556C50.1851 26.8714 51.3155 30.9113 48.718 32.6263Z" fill="#00BD82"/>
<path opacity="0.4" d="M37.0516 27.4224L36.2017 35.8638C36.1071 36.8125 34.8589 37.1059 34.355 36.2971L31.1067 31.1423C29.727 28.9542 31.3619 26.1224 33.9467 26.2232L36.097 26.3104C36.6728 26.3408 37.1109 26.8526 37.0516 27.4224Z" fill="#00BD82"/>
<path d="M10.143 40.7494L9.9252 37.121C9.86045 36.112 9.33261 35.1978 8.49116 34.6372L5.45782 32.6344C2.85564 30.9113 3.98133 26.8633 7.09678 26.7475L8.72578 26.6916C8.94706 26.6825 9.16868 26.7487 9.35236 26.88L19.8684 34.444C20.2974 34.7573 20.4124 35.3489 20.1293 35.7928L16.0514 42.2573C14.3933 44.8974 10.3295 43.8564 10.143 40.7494Z" fill="#00BD82"/>
<path opacity="0.4" d="M20.483 33.2477L13.5975 28.291C12.8232 27.7348 13.1932 26.5071 14.1456 26.4751L20.2339 26.2394C22.8187 26.1386 24.4536 28.9704 23.074 31.1585L21.9233 32.9771C21.6091 33.4606 20.9468 33.584 20.483 33.2477Z" fill="#00BD82"/>
<path d="M44.0282 10.6066L44.2459 14.235C44.3107 15.244 44.8385 16.1582 45.68 16.7188L48.7133 18.7216C51.3155 20.4447 50.1898 24.4927 47.0744 24.6085L45.4454 24.6645C45.2241 24.6736 45.0025 24.6073 44.8188 24.4761L34.3028 16.912C33.8738 16.5987 33.7587 16.0071 34.0418 15.5632L38.1198 9.09872C39.7778 6.45859 43.8417 7.49962 44.0282 10.6066Z" fill="#00BD82"/>
<path opacity="0.4" d="M33.6882 18.1083L40.5737 23.065C41.3479 23.6213 40.9779 24.8489 40.0256 24.8809L33.9372 25.1166C31.3524 25.2174 29.7175 22.3856 31.0972 20.1975L32.2478 18.3789C32.562 17.8954 33.2243 17.772 33.6882 18.1083Z" fill="#00BD82"/>
<path d="M5.45318 18.6176L8.48652 16.6148C9.32797 16.0542 9.85581 15.14 9.92056 14.1309L10.1383 10.5026C10.3295 7.38749 14.398 6.33837 16.0561 8.97851L16.919 10.3613C17.0375 10.5484 17.091 10.7734 17.0691 10.9981L15.7765 23.8873C15.7197 24.4155 15.2648 24.8109 14.7388 24.7877L7.10148 24.4883C3.98603 24.3725 2.85566 20.3326 5.45318 18.6176Z" fill="#00BD82"/>
<path opacity="0.4" d="M17.1196 23.8215L17.9695 15.38C18.0641 14.4314 19.3122 14.138 19.8162 14.9468L23.0645 20.1016C24.4441 22.2897 22.8092 25.1215 20.2244 25.0207L18.0741 24.9335C17.4983 24.9031 17.0603 24.3913 17.1196 23.8215Z" fill="#00BD82"/>
<path d="M31.6017 48.1824L28.4117 46.5874C27.5226 46.1474 26.4867 46.1474 25.5976 46.5874L22.4076 48.1824C19.6667 49.5482 16.7792 46.6057 18.2092 43.9015L18.9609 42.4899C19.0617 42.2974 19.2267 42.1415 19.4284 42.0499L31.0151 36.8249C31.4917 36.614 32.0509 36.8065 32.2892 37.2649L35.7817 43.9015C37.2117 46.6057 34.3334 49.5482 31.6017 48.1824Z" fill="#00BD82"/>
<path opacity="0.4" d="M30.2999 35.7157L22.7099 39.1348C21.8574 39.5198 20.9958 38.6032 21.4358 37.7782L24.2224 32.489C25.4049 30.2432 28.6133 30.2432 29.7958 32.489L30.7766 34.359C31.0333 34.8632 30.8133 35.4865 30.2999 35.7157Z" fill="#00BD82"/>
<path d="M22.3983 3.15065L25.5883 4.74565C26.4774 5.18565 27.5133 5.18565 28.4024 4.74565L31.5924 3.15065C34.3333 1.78482 37.2208 4.72732 35.7908 7.43149L35.0391 8.84315C34.9383 9.03565 34.7733 9.19149 34.5716 9.28315L22.9849 14.5082C22.5083 14.719 21.9491 14.5265 21.7108 14.0682L18.2183 7.43149C16.7883 4.72732 19.6666 1.78482 22.3983 3.15065Z" fill="#00BD82"/>
<path opacity="0.4" d="M23.7001 15.6173L31.2901 12.1982C32.1426 11.8132 33.0042 12.7298 32.5642 13.5548L29.7776 18.844C28.5951 21.0898 25.3867 21.0898 24.2042 18.844L23.2234 16.974C22.9667 16.4698 23.1867 15.8465 23.7001 15.6173Z" fill="#00BD82"/>
</svg>
